<?xml version="1.0" standalone="no"?>
<!DOCTYPE svg PUBLIC "-//W3C//DTD SVG 20010904//EN"
  "http://www.w3.org/TR/2001/REC-SVG-20010904/DTD/svg10.dtd">
<svg version="1.0" xmlns="http://www.w3.org/2000/svg"
  width="2048.000000pt" height="2048.000000pt" viewBox="0 0 2048.000000 2048.000000"
  preserveAspectRatio="xMidYMid meet">

<g transform="translate(0.000000,2048.000000) scale(0.100000,-0.100000)"
fill="#000000" stroke="none">
<path d="M6940 18439 c-270 -13 -563 -35 -1075 -84 -258 -25 -661 -61 -895
-80 -741 -62 -1052 -112 -1410 -227 -281 -90 -512 -216 -670 -364 -307 -289
-443 -670 -427 -1194 6 -185 -2 -284 -63 -845 -84 -764 -135 -1381 -185 -2225
-18 -302 -61 -898 -104 -1455 -84 -1071 -109 -1734 -118 -3095 -7 -1150 3
-1533 58 -2145 66 -747 165 -1142 410 -1637 128 -258 206 -373 364 -537 295
-306 646 -500 1230 -681 477 -147 1053 -262 1575 -315 437 -44 1122 -64 2173
-65 425 0 447 -1 447 -18 0 -10 -9 -113 -20 -228 -10 -115 -22 -293 -26 -396
l-7 -188 -401 0 c-221 0 -640 -9 -931 -20 -292 -11 -665 -24 -830 -30 -165 -6
-313 -13 -330 -16 -16 -3 -365 -10 -775 -14 -774 -9 -994 -18 -1217 -50 -210
-30 -265 -64 -342 -215 -39 -75 -43 -92 -68 -265 -32 -227 -36 -433 -10 -527
48 -180 158 -283 354 -333 158 -41 465 -75 813 -90 135 -6 421 -22 635 -35
225 -14 616 -30 925 -36 725 -16 2085 -17 2750 -1 300 7 804 12 1120 10 316
-1 751 -2 965 -1 442 2 1541 1 3075 0 1298 -2 2067 17 2420 59 268 31 630 104
762 154 79 29 142 88 167 155 19 50 22 94 33 532 14 545 14 536 -61 630 -66
81 -133 129 -221 157 -147 47 -225 49 -1148 43 -830 -6 -974 -10 -1487 -42
-132 -8 -433 -24 -670 -35 -236 -11 -465 -22 -507 -25 l-78 -5 0 47 c0 27 7
107 15 178 17 160 35 438 38 605 l2 125 510 5 c281 3 740 2 1020 -4 776 -14
1340 -13 1475 2 593 67 989 207 1426 503 540 366 779 896 889 1969 55 548 73
1095 120 3680 19 1055 54 2225 100 3350 62 1514 85 2179 97 2789 15 793 0
1103 -66 1365 -76 299 -245 515 -528 675 -178 100 -610 221 -998 280 -909 137
-2977 195 -7010 197 -1218 0 -1961 4 -2165 12 -344 13 -856 13 -1125 1z m1410
-755 c492 -15 691 -15 1535 -6 641 7 1212 8 1685 2 393 -5 1154 -14 1690 -20
536 -5 1043 -12 1125 -15 83 -3 310 -10 505 -15 1545 -44 2278 -111 2761 -255
228 -68 326 -128 368 -224 55 -128 76 -442 67 -996 -4 -225 -9 -411 -11 -414
-3 -2 -854 5 -1892 17 -1039 12 -4385 49 -7438 83 -3052 34 -5553 64 -5557 68
-3 3 0 67 8 141 8 74 18 279 24 455 6 219 14 336 23 371 25 89 77 175 152 250
57 56 91 80 175 122 166 81 379 143 655 191 173 30 325 47 725 81 195 17 616
55 935 85 506 47 891 78 1115 88 206 10 860 5 1350 -9z m2375 -2059 c3784 -41
6985 -78 7113 -81 l232 -6 0 -92 c0 -51 -7 -272 -15 -492 -21 -563 -53 -1375
-70 -1809 -48 -1189 -86 -2489 -100 -3410 -9 -588 -34 -1888 -40 -2105 -27
-922 -50 -1316 -101 -1675 -100 -717 -228 -1006 -538 -1214 -225 -151 -425
-244 -651 -301 -301 -77 -538 -95 -1080 -85 -203 4 -371 8 -373 10 -4 4 -67
424 -93 620 -28 214 -52 546 -40 558 12 12 259 80 387 107 281 59 493 128 679
223 132 68 226 157 244 233 20 86 -22 186 -119 283 -61 61 -233 187 -358 261
-50 30 -92 58 -92 61 0 3 31 18 70 33 234 92 326 246 245 411 -89 183 -445
431 -888 619 -79 33 -76 21 -47 218 25 169 35 220 113 578 36 162 73 340 83
395 10 59 25 112 36 128 23 32 85 271 122 468 138 731 79 1450 -171 2084 -420
1062 -1319 1812 -2542 2120 -433 109 -970 161 -1396 136 -816 -49 -1567 -312
-2105 -738 -120 -95 -323 -301 -406 -413 -182 -244 -295 -496 -345 -770 -21
-112 -18 -421 5 -535 56 -281 191 -562 384 -798 93 -113 285 -294 416 -392
525 -393 1286 -646 2016 -671 85 -3 164 -7 176 -9 35 -7 61 -93 99 -320 111
-674 138 -1880 60 -2730 -48 -514 -118 -880 -401 -2077 l-27 -117 -71 -5 c-39
-3 -172 -8 -296 -11 -124 -3 -472 -15 -775 -25 -935 -33 -1170 -39 -1810 -46
-645 -6 -1908 9 -2170 26 -658 44 -1200 136 -1742 296 -526 155 -806 305
-1018 547 -98 110 -196 288 -293 527 -126 312 -184 592 -231 1115 -54 598 -65
994 -58 2115 9 1386 31 1944 127 3205 54 713 67 889 90 1270 46 756 109 1522
170 2076 16 151 30 278 30 283 0 4 151 5 343 2 188 -4 3438 -40 7222 -81z
m1285 -2061 c1276 -107 2338 -765 2847 -1760 159 -311 248 -589 310 -963 26
-158 27 -183 28 -511 0 -309 -3 -361 -23 -499 -29 -192 -54 -318 -97 -491 -18
-74 -43 -178 -55 -230 -12 -52 -44 -178 -71 -280 -106 -396 -170 -746 -214
-1160 -65 -617 -86 -1009 -88 -1645 -2 -656 7 -772 108 -1469 30 -209 55 -388
55 -398 0 -17 -63 -18 -1660 -18 -1510 0 -1660 1 -1660 16 0 9 41 190 91 402
323 1379 375 1724 410 2717 18 524 -16 1325 -77 1815 -44 357 -125 603 -237
717 -57 59 -127 80 -292 88 -770 37 -1405 241 -1917 615 -121 88 -320 283
-401 392 -313 419 -379 886 -188 1328 251 583 920 1054 1781 1254 428 99 839
124 1350 80z m3289 -6083 c301 -151 541 -347 541 -443 0 -70 -155 -133 -590
-237 -180 -44 -205 -46 -229 -22 -24 24 -26 61 -11 191 15 132 31 294 40 418
6 98 11 116 31 138 13 14 34 24 51 24 15 0 91 -31 167 -69z m222 -888 c219
-124 436 -283 508 -374 72 -90 58 -109 -145 -192 -175 -72 -344 -125 -544
-172 -52 -13 -157 -39 -233 -59 -76 -20 -140 -36 -144 -36 -8 0 4 717 12 730
24 39 333 147 426 149 25 1 60 -13 120 -46z m-3036 -3035 c-4 -29 -20 -127
-36 -218 -100 -579 -121 -696 -130 -705 -25 -25 -3323 -15 -3348 11 -3 3 -6
195 -6 427 l0 422 75 7 c99 9 1998 69 3100 97 162 4 308 9 323 9 l29 2 -7 -52z
m4255 -1294 l32 -7 -4 -246 c-3 -159 -9 -257 -17 -278 -16 -40 -65 -65 -181
-92 -206 -48 -444 -67 -1015 -81 -225 -5 -446 -12 -490 -16 -117 -11 -1995 -5
-2673 7 -321 6 -591 7 -600 3 -9 -4 -667 -9 -1462 -10 -911 -1 -1684 -7 -2093
-17 -490 -11 -797 -12 -1260 -6 -879 12 -1571 28 -1727 39 -201 14 -615 38
-870 50 -206 10 -313 20 -521 51 -42 6 -82 15 -90 20 -11 7 -14 47 -14 206 l0
198 140 -1 c77 -1 394 -5 705 -9 368 -5 659 -4 835 4 149 6 383 15 520 21 649
27 1063 41 1557 52 548 12 552 12 1623 -23 489 -16 2243 -22 2830 -10 685 14
1711 57 2435 101 278 18 682 32 1165 43 275 6 1145 7 1175 1z"/>
<path d="M3984 16880 c-102 -21 -203 -101 -246 -195 -34 -75 -33 -200 3 -275
72 -150 213 -218 389 -185 85 16 175 92 219 185 22 46 26 69 26 140 0 72 -4
93 -27 141 -37 73 -90 126 -163 160 -68 31 -140 41 -201 29z"/>
<path d="M10675 12878 c-58 -30 -81 -54 -105 -111 -47 -109 -9 -267 81 -338
117 -93 238 -90 336 9 103 103 97 285 -12 381 -91 79 -214 104 -300 59z"/>
<path d="M12165 12726 c-131 -43 -199 -133 -199 -266 0 -105 67 -211 165 -265
169 -92 411 40 413 225 1 99 -94 240 -194 287 -58 28 -134 36 -185 19z"/>
<path d="M10443 11211 c-109 -6 -114 -7 -144 -37 -63 -63 -43 -166 39 -201 29
-13 88 -18 262 -24 220 -6 336 -14 670 -46 276 -26 291 -27 328 -3 39 24 66
81 58 123 -9 45 -44 96 -79 113 -16 9 -67 23 -111 30 -198 35 -765 60 -1023
45z"/>
</g>
</svg>
