<?xml version="1.0" standalone="no"?>
<!DOCTYPE svg PUBLIC "-//W3C//DTD SVG 20010904//EN"
  "http://www.w3.org/TR/2001/REC-SVG-20010904/DTD/svg10.dtd">
<svg version="1.0" xmlns="http://www.w3.org/2000/svg"
  width="2048.000000pt" height="2048.000000pt" viewBox="0 0 2048.000000 2048.000000"
  preserveAspectRatio="xMidYMid meet">
<metadata>
Created by potrace 1.14, written by Peter Selinger 2001-2017
</metadata>
<g transform="translate(0.000000,2048.000000) scale(0.100000,-0.100000)"
fill="#000000" stroke="none">
<path d="M6950 18459 c-354 -16 -1062 -74 -1210 -99 -30 -5 -122 -14 -205 -20
-768 -54 -1125 -91 -1475 -151 -472 -81 -883 -239 -1110 -427 -221 -183 -377
-420 -446 -681 -49 -186 -57 -257 -59 -571 -2 -162 -8 -344 -14 -405 -22 -213
-42 -392 -61 -550 -11 -88 -27 -241 -35 -340 -28 -351 -55 -651 -65 -725 -13
-106 -46 -572 -75 -1075 -13 -236 -38 -603 -55 -815 -16 -212 -43 -574 -60
-805 -16 -231 -32 -438 -35 -460 -40 -329 -85 -2739 -65 -3522 11 -419 34
-923 50 -1108 30 -325 89 -712 134 -875 9 -30 30 -107 47 -170 17 -63 35 -119
39 -125 4 -5 11 -21 15 -35 4 -14 16 -43 25 -65 10 -22 28 -69 40 -105 13 -36
31 -81 41 -100 10 -19 38 -78 63 -130 130 -273 243 -436 428 -615 139 -135
300 -254 454 -335 155 -82 178 -93 359 -170 11 -4 56 -20 100 -35 44 -15 98
-35 120 -45 22 -9 103 -34 180 -54 77 -21 157 -44 177 -51 71 -27 500 -128
683 -161 191 -34 529 -84 635 -93 468 -43 1050 -60 2058 -61 336 0 612 -4 612
-9 0 -4 -7 -75 -15 -157 -13 -140 -35 -505 -35 -599 l0 -42 -532 -6 c-465 -5
-1409 -35 -2063 -67 -115 -5 -419 -10 -675 -10 -786 0 -1274 -31 -1405 -89
-48 -21 -125 -97 -125 -123 0 -10 -4 -18 -10 -18 -5 0 -10 -7 -10 -15 0 -8 -4
-15 -8 -15 -48 0 -112 -516 -92 -731 8 -84 16 -117 43 -174 39 -81 109 -156
179 -191 150 -76 460 -122 978 -144 135 -6 382 -20 550 -31 676 -44 2203 -68
3153 -50 1504 29 1719 31 2192 19 366 -8 588 -8 1003 2 405 10 703 11 1240 4
1393 -20 2744 -9 3412 26 234 12 451 35 580 60 52 10 120 21 150 24 80 8 320
71 384 100 79 36 131 87 155 152 18 47 22 92 31 386 15 515 15 648 -1 701 -7
26 -17 47 -21 47 -4 0 -8 5 -8 12 0 25 -132 140 -194 169 -140 65 -118 64
-1096 63 -865 -1 -1089 -6 -1615 -39 -328 -21 -1229 -64 -1234 -59 -3 2 6 109
19 237 12 127 25 334 28 458 l5 227 196 7 c183 7 713 4 2071 -11 567 -7 709
-2 940 32 182 27 555 120 584 146 6 4 16 8 22 8 7 0 41 13 76 28 35 16 79 35
98 42 80 30 402 216 475 274 22 17 53 40 69 50 54 34 223 198 274 266 15 19
32 40 38 45 23 20 128 192 171 280 24 50 48 98 54 107 5 10 9 23 9 29 0 6 7
25 15 42 28 60 102 302 119 387 9 47 28 146 42 220 38 195 42 218 64 395 65
534 89 1179 125 3355 17 1079 32 1707 45 1990 12 249 36 966 50 1455 12 464
48 1410 55 1455 16 111 54 1290 61 1890 9 727 -6 941 -83 1215 -46 164 -59
195 -129 301 -136 206 -297 327 -609 454 -204 83 -755 195 -1150 234 -249 25
-398 35 -660 46 -137 5 -299 14 -360 20 -524 49 -2888 84 -5650 86 -1200 0
-1974 5 -2180 12 -357 13 -805 13 -1085 1z m3885 -14941 c13 -13 38 -34 55
-48 17 -14 45 -37 63 -53 18 -15 37 -30 42 -35 6 -4 28 -20 50 -37 22 -16 46
-35 53 -42 7 -7 17 -13 21 -13 4 0 17 -9 29 -20 88 -82 598 -420 840 -555 67
-38 122 -73 122 -78 0 -10 -2934 -1 -3052 9 l-68 6 -10 36 c-12 43 -14 771 -2
789 8 12 192 20 1152 48 679 19 676 19 705 -7z"/>
</g>
</svg>
